PathFileType	4	(X/Y/Z)	s03c0402.trc
DataRate	CameraRate	NumFrames	NumMarkers	Units	OrigDataRate	OrigDataStartFrame	OrigNumFrames
200	200	5	50	mm	200	1500	2000
Frame#	Time	racr			lacr			c7			jug			rlel			rdr			llel			ldr			s2			lic			ric			lasi			rasi			rpsi			lpsi			rgt			lgt			rth1			rth2			rth3			rth4			rlfc			rmfc			rsh1			rsh2			rsh3			rsh4			rlmal			rcal			rtoe			rmt5			rmt1			lth1			lth2			lth4			lth3			llfc			lmfc			lsh1			lsh2			lsh3			lsh4			llmal			lcal			ltoe			lmt1			lmt5			SBIKE			LBIKE			RBIKE			
		X1	Y1	Z1	X2	Y2	Z2	X3	Y3	Z3	X4	Y4	Z4	X5	Y5	Z5	X6	Y6	Z6	X7	Y7	Z7	X8	Y8	Z8	X9	Y9	Z9	X10	Y10	Z10	X11	Y11	Z11	X12	Y12	Z12	X13	Y13	Z13	X14	Y14	Z14	X15	Y15	Z15	X16	Y16	Z16	X17	Y17	Z17	X18	Y18	Z18	X19	Y19	Z19	X20	Y20	Z20	X21	Y21	Z21	X22	Y22	Z22	X23	Y23	Z23	X24	Y24	Z24	X25	Y25	Z25	X26	Y26	Z26	X27	Y27	Z27	X28	Y28	Z28	X29	Y29	Z29	X30	Y30	Z30	X31	Y31	Z31	X32	Y32	Z32	X33	Y33	Z33	X34	Y34	Z34	X35	Y35	Z35	X36	Y36	Z36	X37	Y37	Z37	X38	Y38	Z38	X39	Y39	Z39	X40	Y40	Z40	X41	Y41	Z41	X42	Y42	Z42	X43	Y43	Z43	X44	Y44	Z44	X45	Y45	Z45	X46	Y46	Z46	X47	Y47	Z47	X48	Y48	Z48	X49	Y49	Z49	X50	Y50	Z50	
1500	7.5000	798.533491	1396.466171	-112.526963	798.095861	1384.744701	-440.366025	761.537729	1483.627848	-283.578779	727.111607	1305.248662	-271.967973	625.837297	1214.472681	53.796279	741.885988	982.022933	-30.358800	629.983619	1204.415381	-599.852063	725.857062	974.889879	-476.152419	186.226294	1316.014251	-240.662929	347.337896	1296.972660	-437.981329	368.713740	1323.513657	-68.382690	354.879897	1225.238886	-387.420928	378.386426	1244.470004	-108.115579	227.916635	1362.946116	-201.094210	223.166099	1359.072063	-286.596831	300.576569	1231.671990	-42.757959	275.270315	1194.473252	-435.925841	377.586146	1088.906716	-20.276231	444.966990	1031.221531	-20.947447	476.288699	951.763832	-16.854150	471.968026	1050.700267	-34.486363	516.663613	827.924294	-29.871724	514.616719	802.748146	-149.789845	380.631415	725.535079	-10.458823	322.602690	659.808106	-29.160136	239.276609	631.788997	-33.901321	342.164314	637.788976	-52.607400	125.527853	568.568732	-62.069336	62.264880	593.882654	-104.260152	207.153579	319.697100	-120.693247	135.544676	411.465492	-46.330641	162.073898	403.683168	-160.575077	336.309392	1045.034092	-453.357901	389.594007	976.566702	-453.134761	422.916412	991.244991	-449.140325	402.126540	888.739465	-442.010590	469.211190	775.600210	-420.400056	473.786220	761.955056	-302.229027	395.129157	618.041423	-449.157527	387.824956	534.433369	-432.949168	337.592643	459.684224	-431.561925	418.607902	525.140102	-410.129333	286.965508	343.611788	-419.186693	212.720423	311.314670	-376.520949	514.187881	238.381521	-361.241316	419.538979	258.148702	-321.757826	395.956291	240.546028	-439.811994	-219.361786	944.262194	-238.275137	-14.295134	80.518520	-437.488831	-14.244573	80.956107	-37.155390	
1501	7.5050	797.570739	1398.288703	-110.496805	798.844606	1385.119470	-438.809538	760.878808	1484.798554	-282.734008	727.313423	1306.296236	-270.539196	625.336533	1214.143309	54.280703	741.960712	981.914793	-29.930136	630.417489	1204.781539	-598.578186	725.788689	974.922554	-475.349449	186.959696	1313.913688	-241.254541	347.746406	1294.014428	-437.536778	368.620376	1323.277539	-69.423462	355.725776	1223.291420	-387.979481	378.696852	1244.267313	-108.915041	227.915122	1361.287491	-202.015665	223.540720	1356.580450	-287.256749	302.404200	1231.795349	-43.191464	274.790657	1190.832411	-436.303350	380.941384	1091.070247	-20.251089	449.493652	1034.697300	-20.848319	482.471800	955.894160	-16.638518	476.234584	1054.403820	-35.865716	525.068358	833.038078	-29.610790	522.280444	807.061461	-149.246004	388.198787	731.395002	-10.519917	329.371459	666.415285	-29.419047	245.747731	639.407035	-34.031431	348.699810	644.446451	-52.957456	131.038479	577.839095	-62.156098	67.320938	603.010527	-104.358648	213.027062	329.279424	-121.045273	141.364404	420.830916	-46.627084	166.196124	412.499763	-161.691029	332.597266	1039.956949	-452.808423	384.203481	970.212268	-452.494906	417.901067	984.130458	-449.090908	394.823846	882.192188	-440.513707	459.806248	768.654897	-419.112099	464.883708	755.083744	-300.884283	387.210985	610.957881	-448.492553	380.919336	527.345698	-432.464507	331.662193	451.873343	-430.994006	411.961821	518.281489	-409.866417	282.294149	335.447087	-418.813037	208.431564	304.055644	-376.413424	509.090728	227.532444	-360.976721	414.651040	248.437101	-321.450025	390.921888	230.793292	-439.122799	-219.367848	944.236245	-238.276229	-14.287675	80.485024	-437.476890	-14.247860	80.925508	-37.155952	
1502	7.5100	796.553963	1400.017582	-108.591805	799.308666	1385.353283	-436.623721	760.195657	1485.960490	-281.780064	727.177235	1307.394333	-269.066612	624.721238	1213.878664	54.997620	742.021326	981.765471	-29.263219	630.826347	1205.168499	-597.328651	725.644497	974.849715	-474.613202	186.974575	1311.988565	-242.407058	348.428650	1291.462129	-437.970287	368.167415	1322.917148	-70.281980	356.651696	1221.229022	-388.393517	379.023386	1243.895253	-109.782658	227.642579	1359.703388	-202.914582	223.796820	1353.955095	-288.246159	304.028505	1231.828314	-43.739517	274.263912	1187.320395	-436.172863	384.154986	1093.166647	-20.331698	453.990071	1038.282191	-20.902784	488.799961	960.126875	-17.028747	480.266346	1058.447318	-36.394174	533.264492	838.275553	-29.437193	529.006266	809.590666	-143.716602	395.704602	737.291294	-10.612585	337.182314	673.677584	-28.957962	252.293662	647.054667	-34.406333	355.151135	650.914766	-53.362308	136.709210	586.860783	-62.344028	72.755950	611.701039	-104.653262	219.444688	338.563496	-121.443668	147.622067	429.956120	-46.895064	172.159572	421.552863	-162.087407	328.774184	1034.826549	-452.278510	378.645320	964.009191	-452.542177	412.786111	977.068008	-449.054130	387.388627	875.956360	-439.300384	450.692177	761.758098	-417.185007	455.846727	748.446186	-299.983055	379.223689	604.276267	-447.803358	373.837689	520.617190	-431.891887	325.429612	444.650169	-430.494634	405.161850	511.847900	-409.599105	277.150786	327.948116	-418.452053	203.724237	297.367604	-376.301745	503.340144	216.916004	-360.858533	409.099315	239.133669	-321.129372	385.334934	221.699819	-438.930102	-219.364451	944.217454	-238.305750	-14.299500	80.462365	-437.484442	-14.273402	80.909953	-37.133872	
1503	7.5150	795.481694	1401.824550	-106.767450	799.932130	1385.832145	-435.086690	759.499918	1487.142884	-280.756113	727.239204	1308.471834	-267.604949	624.096157	1213.593863	55.788795	742.078496	981.596000	-28.292312	631.300929	1205.548400	-595.954511	725.422308	974.734972	-473.850698	187.014588	1310.020432	-242.909239	349.208827	1289.029306	-438.346511	367.574295	1322.516073	-71.099091	357.838712	1219.186958	-388.814117	379.260585	1243.512388	-110.353190	226.675924	1358.436759	-203.863101	224.037784	1351.421764	-289.252933	305.610335	1231.886461	-44.283069	273.845970	1183.794561	-436.075748	387.342807	1095.266884	-20.451570	458.423111	1042.093002	-21.098470	495.028381	964.731712	-17.038990	484.140328	1062.602589	-37.126110	541.247039	843.552699	-29.339864	537.089595	816.174403	-145.668139	403.009540	743.189885	-10.905892	343.901410	680.227274	-29.391384	258.740356	654.549211	-34.927675	361.576396	657.412134	-53.934897	142.513047	595.482126	-62.655889	77.797863	619.790821	-104.912458	226.749614	347.942414	-121.716545	154.403479	438.762108	-47.136570	178.173708	431.099832	-161.946061	324.917330	1029.837979	-451.704831	373.088371	957.843081	-451.951917	407.666004	970.225726	-449.091834	380.098935	869.801644	-437.752200	441.308656	755.413350	-415.937730	446.252797	742.387330	-298.895421	371.358393	598.055850	-447.127418	366.751027	514.338485	-431.375874	319.069064	437.860201	-430.161806	398.202324	505.762010	-409.181566	271.637294	320.878691	-418.074491	198.640097	291.332532	-376.233997	497.070749	206.578572	-360.692651	403.200404	230.271170	-320.905957	379.129605	212.916634	-438.723944	-219.373705	944.194126	-238.299751	-14.312422	80.431259	-437.467370	-14.285259	80.907291	-37.142407	
1504	7.5200	794.377579	1403.655378	-104.875194	800.503212	1386.253069	-433.482931	758.829645	1488.234017	-279.512932	727.264399	1309.477285	-265.872512	623.365074	1213.273668	56.657127	742.096659	981.409876	-27.053539	631.811843	1205.958419	-594.675944	725.191947	974.563538	-473.124949	186.884310	1307.268345	-243.093656	350.232384	1286.730348	-438.743777	366.925048	1322.091522	-71.738145	359.204581	1217.210679	-389.205437	379.462681	1243.004536	-110.891650	225.247063	1357.310467	-204.969602	223.935028	1349.485315	-289.563700	306.929516	1231.933061	-44.911965	273.494793	1180.275036	-436.044454	390.428891	1097.435701	-20.863935	462.811875	1045.827343	-21.422815	501.137969	969.310203	-17.138165	487.885219	1066.841295	-38.048681	548.988582	848.757224	-29.347955	546.984907	823.026768	-153.075104	410.226557	749.173646	-11.310352	350.613435	686.844665	-29.830944	265.033314	662.026117	-35.334365	367.885865	663.763485	-54.548084	148.581356	603.679035	-63.051018	83.298821	627.517976	-105.181556	234.390572	356.719457	-122.173327	161.680606	447.287207	-47.416934	185.436810	439.654414	-162.134575	320.983206	1025.143811	-451.135191	367.593000	952.134226	-451.493706	402.439391	963.707699	-449.079275	372.816035	864.042827	-436.360933	431.988762	749.630541	-414.783387	436.757879	736.524886	-298.028700	363.698310	592.687524	-447.299974	359.644051	508.513137	-430.998712	312.526273	431.680933	-429.926561	391.122228	500.126724	-408.678798	265.854760	314.356416	-417.750222	193.170250	285.884951	-376.178117	490.299315	196.679912	-360.366079	396.760862	221.971417	-320.823288	372.359702	204.959941	-439.138969	-219.432233	944.164921	-238.265379	-14.325448	80.373992	-437.489399	-14.285528	80.848428	-37.109285	
